# xmcd
#
# Track frame offsets:
#	150
#	20129
#	38246
#	54311
#	73581
#	89585
#	105450
#	120207
#	139104
#	154857
#	171252
#	186548
#	201572
#	215088
#
# Disc length: 3080 seconds
#
# Revision: 1
# Processed by: cddbd v1.5.1PL2 Copyright (c) Steve Scherf et al.
# Submitted via: audiograbber 1.83.01
#
DISCID=d20c060e
DTITLE=Star Disc - SD129
DYEAR=1900
DGENRE=Karaoke
TTITLE0=McGraw, Tim - Drugs Or Jesus
TTITLE1=Twain, Shania - Don't
TTITLE2=Keith, Toby - Honky Tonk
TTITLE3=Worley, Darryl - If Something Should Happen
TTITLE4=Bentley, Dierks - Lot Of Leaving Left To Do
TTITLE5=Shedaisy - Don't Worry 'Bout A Thing
TTITLE6=Jewell, Buddy - If She Were Any Other Woman
TTITLE7=Big and Rich - Big Time
TTITLE8=Chesney, Kenny - Old Blue Chair
TTITLE9=Elam, Katrina - I Want A Cowboy
TTITLE10=Canyon, George - My Name
TTITLE11=Roberts, Julie - Wake Up Older
TTITLE12=Green, Pat - Somewhere Between Texas And Mexico
TTITLE13=Trick Pony - It's A Heartache
EXTD=
EXTT0=
EXTT1=
EXTT2=
EXTT3=
EXTT4=
EXTT5=
EXTT6=
EXTT7=
EXTT8=
EXTT9=
EXTT10=
EXTT11=
EXTT12=
EXTT13=
PLAYORDER=
